# xmcd
#
# Track frame offsets:
#	150
#	24752
#	55725
#	90600
#	107625
#	125702
#	147002
#	166952
#	192450
#
# Disc length: 3164 seconds
#
# Revision: 1
# Processed by: cddbd v1.5PL3 Copyright (c) Steve Scherf et al.
# Submitted via: CDex 1.50Beta5
#
DISCID=710c5a09
DTITLE=アンドレ・ギャニオン - Image イマージュ
DYEAR=1900
DGENRE=
TTITLE0=L'Etermal Retour
TTITLE1=Premier Episode
TTITLE2=Flashback
TTITLE3=Chanson Pour Renee Claude
TTITLE4=Comme Dans Un Film
TTITLE5=L'Inoubliable
TTITLE6=Deux Jours A La Campagne
TTITLE7=Mouvements-Second
TTITLE8=Neiges
EXTD=アンドレ・ギャニオン イマージュ
EXTT0=
EXTT1=
EXTT2=
EXTT3=
EXTT4=
EXTT5=
EXTT6=
EXTT7=
EXTT8=
PLAYORDER=
